# xmcd
#
# Track frame offsets: 
#        150
#        16184
#        29147
#        44178
#        54982
#        72686
#        87955
#        101660
#        112638
#        126631
#        143480
#        156572
#
# Disc length: 2227 seconds
#
# Revision: 0
# Processed by: cddbd v1.5.2PL0 Copyright (c) Steve Scherf et al.
# Submitted via: ExactAudioCopy v0.95b4
#
DISCID=ae08b10c
DTITLE=Rough Edges - Heyday
DYEAR=2007
DGENRE=Bluegrass
TTITLE0=Wild Horses
TTITLE1=Angel Anna
TTITLE2=Heyday
TTITLE3=Teardrops in My Eyes
TTITLE4=Sometimes I Have the Strangest Dreams
TTITLE5=Lonesome Fugitive
TTITLE6=Sweet Memory
TTITLE7=Song for Susan
TTITLE8=Baby Boy
TTITLE9=Four Days of Rain
TTITLE10=Ticket to Ride
TTITLE11=Don't Say Goodbye
EXTD=
EXTT0=
EXTT1=
EXTT2=
EXTT3=
EXTT4=
EXTT5=
EXTT6=
EXTT7=
EXTT8=
EXTT9=
EXTT10=
EXTT11=
PLAYORDER=
